<?xml version="1.0" standalone="no"?>
<!DOCTYPE svg PUBLIC "-//W3C//DTD SVG 20010904//EN"
 "http://www.w3.org/TR/2001/REC-SVG-20010904/DTD/svg10.dtd">
<svg version="1.0" xmlns="http://www.w3.org/2000/svg"
 width="2202.000000pt" height="2205.000000pt" viewBox="0 0 2202.000000 2205.000000"
 preserveAspectRatio="xMidYMid meet">

<g transform="translate(0.000000,2205.000000) scale(0.100000,-0.100000)"
fill="#000000" stroke="none">
<path d="M10700 22038 c-315 -7 -590 -26 -930 -64 -2112 -235 -4119 -1088
-5765 -2450 -266 -220 -468 -406 -766 -703 -306 -307 -450 -463 -675 -732
-1382 -1654 -2250 -3683 -2488 -5819 -54 -481 -60 -596 -63 -1265 -1 -349 2
-646 7 -665 5 -19 18 -147 30 -285 257 -3021 1768 -5806 4180 -7706 1528
-1203 3389 -1987 5325 -2244 533 -70 829 -89 1440 -89 597 -1 873 15 1395 80
2101 261 4085 1133 5720 2513 699 590 1351 1301 1882 2051 1564 2209 2255
4902 1952 7610 -210 1885 -918 3709 -2033 5237 -577 791 -1290 1537 -2045
2138 -1080 860 -2305 1509 -3606 1910 -1165 359 -2295 513 -3560 483z m1100
-743 c1553 -111 3042 -570 4420 -1363 799 -459 1510 -1003 2161 -1652 354
-353 624 -661 901 -1028 199 -262 260 -352 246 -357 -7 -2 -47 -16 -88 -31
-41 -14 -114 -44 -163 -67 -48 -22 -89 -38 -90 -36 -112 151 -387 485 -541
654 -181 200 -588 607 -771 771 -954 857 -2103 1555 -3280 1990 -818 303
-1657 499 -2495 583 -383 39 -546 46 -1030 46 -480 -1 -629 -7 -1020 -46
-1500 -147 -2991 -638 -4245 -1397 -714 -433 -1267 -923 -1639 -1453 l-60 -84
-203 4 c-200 3 -343 -7 -470 -34 -35 -7 -63 -10 -63 -7 0 6 38 48 254 281 186
200 457 462 687 664 1461 1279 3272 2133 5199 2451 422 70 813 109 1285 130
171 8 801 -4 1005 -19z m-75 -605 c1646 -118 3110 -580 4525 -1427 1033 -620
1955 -1428 2715 -2382 122 -153 136 -175 120 -183 -9 -6 -59 -38 -110 -72
l-92 -62 -53 44 c-69 56 -185 124 -280 163 -73 31 -284 89 -321 89 -11 0 -60
48 -125 123 -651 746 -1369 1380 -2180 1923 -1058 709 -1904 1014 -3320 1198
-621 81 -937 100 -1629 101 -592 0 -692 -4 -1115 -46 -1577 -156 -3001 -683
-4130 -1530 -361 -271 -676 -562 -981 -905 l-45 -52 -34 14 c-53 23 -226 71
-340 95 -58 12 -107 23 -109 25 -5 5 114 167 213 288 109 133 361 393 506 520
874 768 2283 1455 3690 1800 670 164 1290 251 2065 290 136 7 882 -3 1030 -14z
m-240 -590 c813 -39 1665 -154 2287 -311 448 -112 793 -239 1198 -440 990
-493 2092 -1350 2910 -2264 73 -82 144 -161 156 -175 l23 -25 -157 -1 c-86 -1
-184 -6 -217 -12 l-59 -10 -251 242 c-748 720 -1269 1163 -1775 1508 -1016
694 -2031 1032 -3430 1144 -269 21 -1009 30 -1330 15 -1445 -66 -2276 -256
-3330 -763 -446 -215 -1067 -569 -1495 -853 -336 -223 -589 -443 -764 -663
l-74 -92 -41 33 c-65 53 -158 113 -243 158 -43 23 -78 45 -78 50 0 18 286 317
435 455 757 698 1637 1210 2670 1555 796 265 1594 406 2565 452 160 8 814 6
1000 -3z m396 -430 c1115 -55 2020 -264 2807 -645 821 -399 1565 -969 2669
-2047 98 -96 145 -148 133 -148 -36 0 -207 -62 -316 -114 l-110 -53 -95 100
c-211 225 -580 557 -864 779 -1093 852 -2467 1438 -3840 1637 -144 21 -337 43
-530 62 -179 17 -858 23 -1077 10 -1905 -117 -3708 -884 -5093 -2167 l-110
-102 -28 69 c-30 72 -112 205 -153 250 l-25 26 67 84 c74 92 274 296 369 375
410 345 1471 964 2170 1268 931 405 1657 552 3050 619 161 8 795 6 976 -3z
m79 -1544 c1004 -110 2012 -495 2960 -1131 426 -285 668 -490 824 -698 68 -90
149 -229 138 -238 -4 -3 -45 -21 -91 -39 -187 -74 -426 -244 -626 -445 -146
-146 -214 -238 -285 -388 -75 -156 -130 -374 -130 -513 0 -30 -5 -56 -12 -61
-7 -5 -58 -20 -113 -32 -120 -28 -275 -76 -330 -103 l-40 -19 43 40 c24 22 98
72 165 112 170 100 187 114 187 150 0 16 -9 38 -21 50 -21 21 -26 21 -143 13
-187 -14 -265 -10 -322 15 -118 53 -150 140 -83 225 12 15 118 100 237 189
303 228 322 247 272 297 -27 27 -41 26 -145 -16 -111 -44 -325 -100 -434 -113
-258 -33 -335 93 -210 346 45 90 130 191 216 254 44 33 53 45 53 71 0 37 -25
68 -55 68 -12 0 -59 -23 -105 -50 -125 -75 -248 -112 -390 -117 -111 -4 -117
-4 -170 24 -84 43 -120 110 -120 224 0 76 22 146 83 261 l52 97 -21 28 c-13
18 -32 29 -51 31 -27 3 -38 -5 -84 -58 -76 -87 -180 -173 -263 -217 -66 -35
-77 -38 -156 -38 -66 0 -96 5 -131 22 -132 60 -218 236 -219 443 0 92 -15 120
-64 120 -42 0 -62 -23 -70 -81 -16 -111 -107 -234 -210 -284 -262 -128 -538
86 -510 395 6 63 5 68 -17 84 -30 21 -62 20 -82 -1 -8 -10 -27 -72 -42 -138
-51 -228 -124 -374 -210 -415 -41 -20 -57 -22 -128 -17 -179 12 -357 150 -432
335 -27 67 -58 89 -99 70 -34 -15 -41 -46 -27 -116 19 -89 25 -278 12 -362
-16 -105 -45 -159 -101 -188 -40 -21 -56 -23 -135 -19 -155 7 -279 67 -433
212 -51 47 -96 85 -101 85 -4 0 -20 -9 -35 -21 -40 -32 -35 -69 20 -137 129
-157 138 -300 24 -366 -27 -16 -52 -21 -110 -21 -95 0 -186 32 -330 115 -57
33 -113 60 -126 60 -38 0 -61 -33 -54 -79 1 -7 34 -46 74 -85 78 -75 138 -180
152 -261 l7 -40 -54 50 c-139 130 -308 204 -467 205 l-63 0 -81 69 c-106 90
-206 146 -342 192 -187 63 -272 74 -586 74 -215 0 -300 -4 -390 -18 -99 -16
-233 -44 -292 -63 -13 -4 -25 11 -51 68 -31 65 -73 128 -153 225 l-26 32 83
88 c591 616 1349 1015 2449 1288 460 114 1142 232 1525 264 72 6 150 13 175
15 112 9 684 -3 820 -18z m-7737 -455 c146 -26 333 -78 452 -126 311 -125 519
-305 624 -538 34 -76 88 -239 93 -281 3 -27 -1 -29 -87 -61 -132 -48 -293
-119 -315 -138 -27 -23 -25 -53 5 -82 29 -30 53 -31 103 -6 39 19 273 114 308
125 21 6 23 2 34 -81 7 -48 18 -98 26 -110 29 -46 114 -16 114 40 0 23 -16
135 -25 174 -6 25 7 30 167 63 443 91 853 -10 1104 -272 34 -35 78 -89 97
-120 36 -55 73 -136 66 -142 -2 -2 -44 -24 -94 -50 -49 -26 -111 -63 -137 -82
-40 -28 -48 -40 -48 -66 0 -38 25 -68 56 -68 13 0 50 17 82 38 66 42 180 98
186 91 3 -2 11 -53 20 -112 8 -60 20 -114 26 -122 18 -22 60 -27 86 -10 20 13
24 23 24 68 -1 28 -7 88 -15 132 -8 44 -15 85 -15 91 0 12 129 46 270 70 148
25 544 31 694 10 176 -25 342 -82 453 -156 72 -49 170 -148 209 -212 35 -57
89 -198 76 -198 -4 0 -41 6 -82 14 -251 48 -428 24 -579 -79 -135 -91 -212
-239 -197 -380 10 -102 87 -228 176 -289 25 -17 25 -17 5 -32 -54 -39 -109
-104 -138 -163 -30 -61 -32 -73 -32 -166 0 -112 14 -151 78 -219 l34 -35 -38
-27 c-47 -32 -82 -77 -114 -146 -33 -71 -35 -182 -3 -265 30 -81 131 -182 208
-209 93 -32 249 -25 450 20 91 20 194 46 230 56 35 11 65 18 67 16 2 -2 -15
-39 -37 -84 -65 -130 -180 -219 -333 -259 -91 -23 -239 -14 -337 22 -107 38
-112 39 -143 15 -39 -31 -37 -74 6 -100 45 -28 148 -59 241 -72 l79 -12 -6
-90 c-24 -388 -277 -764 -633 -944 -130 -65 -319 -118 -523 -147 -39 -5 -43
-4 -36 12 34 82 107 297 114 338 13 70 -2 99 -52 103 -49 4 -63 -8 -71 -63 -7
-45 -39 -139 -103 -302 l-36 -93 -96 0 c-97 0 -281 19 -391 41 -51 10 -63 9
-84 -4 -28 -19 -41 -60 -26 -87 6 -11 27 -24 48 -29 67 -18 245 -41 360 -48
61 -3 112 -9 112 -13 0 -4 -23 -43 -51 -86 -234 -358 -560 -569 -1016 -656
-104 -20 -150 -23 -388 -23 -148 0 -291 4 -317 8 l-48 8 59 87 c82 122 151
253 151 287 0 39 -26 65 -66 65 -31 0 -35 -5 -83 -94 -51 -95 -150 -248 -193
-298 l-23 -27 -162 34 c-88 18 -257 59 -374 90 -230 61 -252 61 -265 10 -13
-53 1 -73 69 -94 82 -25 454 -116 537 -132 103 -19 103 -19 30 -89 -299 -282
-662 -458 -1061 -515 -105 -15 -433 -19 -476 -7 -20 7 -16 14 54 97 125 150
226 293 226 322 -1 33 -27 53 -69 53 -30 0 -40 -10 -127 -125 -52 -69 -132
-168 -178 -221 l-84 -95 -43 6 c-68 10 -258 73 -365 121 -53 24 -106 44 -117
44 -33 0 -62 -37 -58 -73 3 -29 10 -36 88 -74 47 -23 149 -63 227 -89 l143
-48 -73 -53 c-137 -100 -326 -180 -531 -225 -91 -20 -128 -23 -386 -22 -250 0
-312 3 -505 28 -573 72 -887 143 -1157 261 -103 45 -108 48 -115 83 -14 64 -9
1199 5 1382 107 1357 394 2511 917 3680 117 263 385 794 453 898 7 11 38 10
168 -2 302 -29 510 -74 653 -141 72 -35 106 -42 127 -27 20 13 35 52 29 73
-19 59 -261 148 -513 189 -84 14 -83 2 -20 145 264 600 841 1020 1534 1114
123 17 503 6 637 -18z m15975 -968 c283 -460 562 -1003 772 -1503 453 -1082
723 -2224 810 -3435 26 -355 28 -1066 4 -1424 l-7 -114 -49 -74 c-184 -274
-503 -483 -853 -559 -109 -23 -368 -24 -530 0 -391 56 -643 136 -867 273 l-57
35 54 65 c59 69 70 110 38 145 -33 36 -66 23 -129 -51 -32 -39 -63 -70 -68
-70 -17 -2 -136 111 -212 200 -65 76 -81 89 -107 89 -38 0 -67 -25 -67 -58 0
-31 81 -131 199 -245 l89 -85 -27 -25 c-87 -80 -239 -178 -377 -244 -382 -181
-811 -205 -1221 -68 -242 81 -434 199 -651 400 l-62 57 102 107 c110 113 304
350 319 388 18 48 -28 102 -74 88 -12 -3 -71 -68 -130 -143 -59 -75 -152 -184
-206 -242 l-99 -105 -85 83 c-65 63 -91 82 -112 82 -38 0 -65 -26 -65 -64 0
-25 15 -45 77 -108 42 -43 75 -79 72 -81 -61 -50 -241 -144 -341 -176 -186
-61 -449 -86 -658 -62 -264 31 -558 138 -774 282 l-64 43 47 29 c110 70 205
175 245 271 20 49 20 52 -4 76 -43 43 -92 20 -134 -62 -28 -55 -132 -151 -204
-187 l-63 -32 -41 35 c-22 19 -70 68 -105 108 -91 101 -128 112 -161 46 -18
-38 -5 -63 83 -156 43 -46 75 -85 72 -88 -2 -3 -49 -15 -103 -26 -141 -30
-346 -30 -467 0 -117 29 -221 73 -314 134 -74 48 -213 174 -213 193 0 6 27 21
60 33 128 50 272 167 332 272 62 106 74 244 31 341 -26 59 -86 125 -136 151
l-39 20 49 33 c141 95 217 249 184 371 -16 61 -65 127 -113 153 -24 13 -45 26
-47 27 -2 2 27 37 66 77 199 214 214 491 35 666 -104 102 -327 196 -555 235
l-37 7 152 129 c84 72 156 130 159 130 4 0 14 -29 23 -65 22 -87 54 -172 72
-190 22 -22 77 -19 99 5 18 20 18 23 1 73 -34 100 -66 222 -66 249 0 25 9 32
88 68 48 23 93 45 101 49 8 4 19 20 24 35 7 22 5 34 -11 55 -26 34 -62 32
-148 -8 -36 -17 -69 -31 -72 -31 -3 0 -2 51 1 113 14 262 117 501 301 695 147
155 323 247 596 312 123 29 116 32 124 -57 8 -99 41 -260 57 -279 17 -21 73
-18 94 6 20 22 19 44 -9 195 -9 44 -15 105 -16 136 l0 56 187 41 c108 24 194
49 205 58 40 37 9 104 -46 104 -27 0 -153 -25 -323 -65 -21 -5 -23 -2 -23 38
0 123 55 328 127 472 64 127 126 206 268 343 276 265 513 409 772 467 111 25
349 45 341 29 -2 -5 -20 -43 -41 -84 -20 -41 -37 -80 -37 -86 0 -25 42 -64 70
-64 35 0 43 11 105 129 l51 96 49 -3 c47 -3 264 -37 401 -63 77 -15 108 -8
124 30 16 38 6 66 -28 80 -25 10 -289 59 -405 76 l-47 6 20 28 c38 54 163 183
234 240 265 217 566 339 912 372 120 11 285 5 359 -12 22 -6 59 -12 82 -14 58
-5 182 -41 272 -79 76 -32 229 -124 251 -152 11 -12 -5 -33 -96 -127 -115
-117 -169 -183 -249 -304 -53 -80 -55 -110 -10 -139 40 -26 70 -11 111 54 64
100 164 222 262 318 52 52 98 94 102 94 3 0 39 -36 79 -81 65 -71 77 -80 104
-77 19 2 38 13 50 30 27 36 13 67 -64 144 -32 32 -59 62 -59 66 0 16 171 120
302 183 246 119 514 187 764 194 l51 1 91 -147z m-8569 -186 c164 -153 410
-162 600 -22 33 24 70 58 82 75 l23 30 22 -60 c71 -198 218 -318 400 -328 97
-5 166 12 270 68 l72 38 4 -97 c5 -121 37 -198 110 -267 81 -76 121 -89 273
-89 72 0 151 4 177 8 l47 8 -34 -75 c-87 -188 -82 -338 16 -435 53 -53 110
-74 216 -79 83 -4 227 10 271 25 10 3 -14 -18 -53 -48 -156 -120 -209 -193
-209 -294 -1 -151 144 -275 340 -292 l74 -6 -52 -35 c-118 -77 -217 -202 -231
-289 -1 -11 -42 -58 -89 -106 -193 -193 -318 -448 -350 -717 -6 -52 -12 -96
-13 -97 -1 -2 -102 11 -225 27 -123 17 -239 30 -258 30 -18 0 -32 4 -30 10 2
5 66 78 142 160 223 241 293 337 356 487 49 116 63 214 58 392 -6 173 -33 326
-95 530 -98 327 -241 489 -601 685 -351 191 -731 315 -1122 368 -141 19 -480
16 -620 -5 -242 -37 -450 -101 -656 -202 -137 -68 -214 -117 -214 -138 -1 -6
-46 -46 -102 -87 -336 -251 -556 -488 -678 -734 -45 -90 -61 -114 -66 -100 -4
10 -13 34 -20 52 -13 31 -11 35 20 80 51 73 68 127 74 232 3 69 0 112 -12 160
-14 54 -15 73 -5 114 16 67 6 185 -25 280 -21 67 -22 77 -8 71 57 -22 155 -36
219 -33 168 11 283 126 283 284 l0 53 63 -29 c92 -42 178 -61 270 -61 109 0
177 22 234 74 75 69 108 155 119 308 l7 87 59 -48 c119 -96 257 -144 393 -138
142 6 240 79 317 235 l41 83 32 -48 c18 -26 56 -69 84 -95z m51 -517 c386 -26
742 -128 1119 -320 307 -156 459 -287 554 -475 38 -77 95 -256 124 -395 35
-162 39 -424 9 -530 -50 -180 -153 -325 -434 -612 -107 -109 -199 -198 -205
-198 -6 0 -47 -18 -92 -39 -92 -45 -194 -133 -283 -244 -46 -59 -66 -75 -126
-102 -156 -72 -360 -121 -595 -145 -135 -13 -475 -13 -599 1 -847 93 -1454
565 -1583 1231 -36 185 -22 419 35 585 99 290 311 535 743 859 83 62 153 117
155 121 6 15 90 59 200 106 169 73 360 123 558 147 76 9 109 11 240 18 19 1
100 -3 180 -8z m-2622 -252 c175 -65 327 -236 363 -406 15 -74 7 -176 -18
-234 -57 -127 -231 -215 -518 -264 -126 -21 -359 -29 -415 -14 -25 6 -64 15
-88 20 -58 13 -122 52 -170 104 -61 66 -76 102 -77 176 -1 164 148 292 365
315 83 9 220 -8 430 -51 91 -19 195 -37 231 -40 64 -6 68 -6 84 19 13 20 15
33 8 54 -11 34 -41 50 -108 60 l-50 7 58 6 c65 6 87 24 87 71 0 59 -92 77
-198 40 -49 -17 -54 -17 -59 -2 -4 14 -52 141 -62 164 -5 13 75 -2 137 -25z
m310 -1048 c-7 -183 -88 -276 -371 -425 -135 -71 -218 -95 -345 -102 -121 -7
-259 16 -288 48 -10 11 -31 19 -48 19 -37 1 -98 41 -140 93 -40 50 -48 141
-18 209 27 61 84 122 139 149 44 21 49 22 159 9 256 -30 601 21 809 119 l80
38 13 -36 c8 -23 12 -68 10 -121z m50 -363 c10 -283 119 -572 306 -811 84
-108 250 -265 366 -349 125 -89 356 -204 510 -254 281 -92 507 -126 830 -126
303 0 569 33 788 97 73 21 83 22 77 8 -40 -97 -48 -135 -52 -244 -5 -102 3
-191 23 -265 5 -18 -9 -32 -85 -88 -50 -36 -118 -96 -151 -133 -45 -51 -60
-62 -60 -46 0 41 -42 181 -76 251 -44 92 -122 174 -201 211 -79 36 -213 38
-317 4 -140 -47 -268 -125 -379 -230 -37 -36 -68 -63 -70 -61 -2 2 -9 33 -16
69 -18 93 -53 160 -115 218 -85 80 -177 100 -297 62 -82 -26 -150 -65 -249
-145 l-80 -65 0 40 c0 106 -46 225 -117 301 -85 91 -193 126 -313 100 -66 -14
-218 -78 -312 -131 -37 -22 -68 -37 -68 -35 0 2 7 34 16 72 24 101 15 207 -25
288 -48 98 -145 172 -247 190 -68 13 -70 18 -12 62 185 140 260 250 243 355
-11 63 -55 105 -137 132 -14 4 -11 14 25 68 63 94 99 209 105 340 l5 107 41
45 c22 25 41 46 41 46 0 0 1 -37 3 -83z m-228 -188 c-16 -94 -75 -212 -140
-276 -94 -94 -192 -132 -487 -188 -260 -49 -323 -46 -402 22 -135 115 -94 330
75 388 33 11 44 10 93 -7 252 -88 496 -58 771 95 52 29 97 49 98 45 2 -5 -2
-40 -8 -79z m-7 -464 c28 -11 32 -50 9 -87 -20 -32 -139 -139 -227 -204 l-40
-29 26 35 c51 68 98 182 113 271 l6 36 48 -8 c26 -4 55 -10 65 -14z m4172
-355 c121 -16 226 -30 233 -30 7 0 12 -12 12 -28 0 -24 -26 -50 -187 -184
-104 -86 -206 -175 -228 -197 -39 -41 -39 -41 -115 -41 -119 0 -240 -17 -262
-37 -26 -23 -20 -71 12 -94 22 -15 35 -16 105 -7 271 33 674 -51 845 -177 129
-94 162 -254 85 -411 -103 -211 -398 -340 -698 -306 -216 24 -453 114 -561
213 -81 74 -176 250 -176 326 0 16 -6 37 -14 48 -18 27 -36 136 -36 219 0 89
22 172 72 275 47 94 62 111 203 215 55 41 142 113 193 160 l92 86 103 0 c58 0
198 -13 322 -30z m-4661 -172 c10 -47 34 -51 148 -27 169 35 277 17 352 -57
42 -43 59 -82 64 -154 6 -82 -15 -167 -68 -278 -43 -91 -49 -135 -23 -164 25
-28 54 -22 118 25 94 67 188 124 303 182 163 83 252 94 333 41 100 -66 137
-212 109 -420 -12 -82 -6 -107 31 -126 32 -18 54 -4 123 79 161 190 357 305
465 272 84 -25 129 -114 156 -311 18 -138 29 -160 80 -160 28 0 39 10 98 89
92 123 193 209 322 273 131 66 264 82 341 41 48 -26 105 -86 135 -144 34 -67
68 -220 75 -337 7 -117 20 -152 58 -152 42 0 56 11 86 69 50 99 55 101 52 21
-6 -121 44 -285 114 -377 l25 -33 -29 -42 c-49 -73 -74 -153 -79 -258 -11
-214 78 -394 271 -547 223 -177 613 -288 895 -255 l85 10 19 -26 c44 -59 197
-200 267 -247 210 -138 472 -202 722 -176 105 11 226 34 323 62 40 12 40 12
153 -65 336 -228 711 -336 1112 -322 307 10 551 84 772 232 l82 55 65 -64
c153 -149 312 -263 488 -349 81 -39 101 -53 96 -66 -41 -113 -116 -247 -293
-527 -261 -410 -326 -572 -337 -835 -6 -156 8 -245 57 -363 80 -191 263 -340
500 -407 116 -33 283 -38 390 -11 124 31 203 74 285 156 124 124 183 270 192
480 12 268 -62 483 -306 890 -96 160 -254 463 -279 535 -11 31 -11 32 11 27
12 -2 69 -15 127 -28 92 -20 133 -23 330 -23 196 -1 239 2 338 22 298 60 568
187 800 376 l82 67 58 -39 c245 -167 642 -284 1095 -323 447 -38 865 112 1180
425 l90 89 -7 -74 c-26 -282 -102 -763 -171 -1094 -196 -928 -495 -1782 -922
-2628 l-128 -252 -7 92 c-21 264 -132 522 -400 927 -154 232 -208 356 -224
515 -6 65 -9 72 -44 100 -79 63 -114 50 -135 -54 -8 -39 -33 -108 -55 -154
-71 -147 -134 -231 -365 -486 -161 -178 -224 -264 -287 -390 -137 -273 -140
-592 -7 -861 115 -234 368 -438 623 -504 102 -26 262 -27 358 -1 l68 17 -20
-30 c-58 -93 -243 -355 -371 -526 -818 -1095 -1824 -2017 -2979 -2732 -407
-252 -991 -557 -1410 -735 -983 -419 -1967 -681 -3010 -802 -182 -21 -518 -51
-573 -51 l-32 0 -1 788 c-1 433 -7 959 -13 1170 l-12 383 32 32 c45 44 62 91
63 172 1 39 6 79 12 90 13 24 0 1728 -15 1965 -5 80 -8 146 -6 148 7 7 155
-112 160 -130 4 -10 17 -21 30 -24 17 -4 25 -15 30 -42 4 -21 10 -41 15 -47 4
-5 10 -51 13 -102 23 -338 192 -711 434 -960 105 -106 142 -128 223 -128 184
0 427 215 524 464 55 138 70 225 70 391 1 131 -3 169 -23 245 -97 373 -358
583 -752 602 -197 10 -353 -24 -430 -94 -41 -37 -39 -37 -138 -17 -20 4 -78
39 -132 79 -54 40 -124 89 -156 109 l-59 36 -22 158 c-12 87 -29 181 -37 209
-21 72 -72 143 -127 178 -26 17 -47 34 -47 38 -1 4 26 48 59 98 41 60 65 87
73 82 7 -5 45 -30 86 -57 95 -63 219 -116 286 -123 75 -8 123 21 181 109 114
171 183 396 218 708 30 263 69 1000 56 1035 -15 41 -170 72 -305 61 -227 -17
-438 -119 -602 -289 -123 -128 -198 -272 -240 -461 -21 -96 -21 -316 1 -416
33 -153 116 -354 177 -431 16 -20 29 -40 29 -44 0 -4 -36 -60 -81 -124 l-81
-118 -71 -6 c-78 -6 -181 -39 -292 -94 -112 -56 -140 -90 -151 -187 -6 -52 -9
-56 -28 -50 -33 11 -40 10 -610 -75 -297 -44 -542 -78 -545 -76 -2 3 -16 36
-31 73 -72 185 -237 338 -441 407 -341 116 -742 -31 -953 -349 -103 -155 -140
-275 -140 -456 -1 -196 40 -312 167 -478 191 -251 394 -365 647 -365 118 -1
196 19 315 78 256 126 436 380 490 689 8 49 15 118 15 155 0 36 4 72 8 78 5 8
135 27 367 53 390 44 470 56 614 94 52 14 97 24 99 22 2 -2 -1 -48 -6 -102 -9
-87 -13 -100 -33 -114 -51 -32 -109 -93 -129 -134 -54 -112 -53 -101 -57
-1321 -3 -707 0 -1137 6 -1150 5 -11 19 -42 32 -69 14 -32 37 -59 66 -80 l44
-31 -6 -295 c-8 -417 -24 -941 -35 -1175 -20 -409 -43 -780 -49 -786 -13 -13
-491 27 -806 67 -1482 189 -2887 676 -4169 1446 -561 337 -1045 690 -1576
1151 -198 171 -748 716 -922 912 -667 753 -1197 1537 -1632 2415 -517 1042
-851 2123 -1015 3281 -33 233 -78 666 -69 674 3 3 30 -6 61 -20 271 -120 663
-203 1262 -268 l120 -13 8 -44 c11 -59 0 -210 -19 -280 -9 -30 -52 -125 -95
-210 -89 -173 -109 -239 -109 -350 1 -138 38 -234 127 -331 62 -66 166 -123
283 -155 93 -26 340 -26 430 0 148 41 258 121 301 218 46 106 37 336 -22 513
-36 108 -74 178 -169 310 -88 123 -125 195 -138 266 -6 30 -9 56 -7 57 2 2 53
12 113 22 265 46 483 145 685 311 l78 64 92 -12 c132 -17 405 -16 539 3 456
62 880 279 1202 614 l70 72 100 -14 c64 -8 199 -13 366 -13 257 1 310 5 487
41 l33 6 -17 -48 c-9 -27 -53 -132 -98 -234 -134 -300 -170 -446 -147 -594 32
-204 137 -338 347 -441 147 -73 247 -98 395 -99 111 0 134 3 204 27 205 72
323 232 342 466 15 177 -28 317 -207 675 -134 271 -179 396 -179 503 0 42 3
46 101 140 112 108 220 245 294 374 l49 85 121 12 c217 21 466 97 629 193 222
132 404 324 515 547 73 145 131 374 131 515 0 63 1 67 23 68 12 0 47 8 77 18
30 9 56 15 57 12 1 -3 4 -18 7 -33z m3672 -1028 c38 -76 62 -110 125 -172 65
-65 94 -85 191 -132 318 -155 609 -185 883 -91 80 28 102 32 110 21 15 -19 50
-36 75 -36 31 0 77 -51 85 -94 19 -97 -64 -196 -227 -275 -182 -88 -311 -121
-471 -121 -125 0 -218 21 -406 91 -212 80 -328 145 -364 206 -10 18 -30 36
-43 39 -29 7 -89 96 -116 172 -42 118 -33 262 22 373 27 53 79 124 86 117 1
-2 24 -46 50 -98z m-7 -774 c131 -87 419 -202 603 -240 157 -32 344 -17 524
44 49 17 90 26 92 21 2 -6 13 -22 24 -36 19 -24 25 -26 65 -20 42 6 46 4 78
-29 42 -45 58 -94 53 -160 -6 -72 -41 -140 -108 -205 -190 -188 -517 -247
-860 -156 -294 79 -512 240 -590 435 -27 68 -37 199 -21 267 11 45 48 133 56
133 2 0 40 -24 84 -54z m-5784 -253 c25 -114 69 -222 187 -458 115 -229 152
-321 174 -433 27 -141 9 -261 -56 -360 -72 -111 -185 -164 -350 -164 -269 1
-528 155 -596 355 -13 37 -18 80 -17 147 1 117 30 221 109 394 87 189 135 306
154 370 l16 59 80 29 c58 21 264 121 280 137 1 0 10 -34 19 -76z m-4412 -1285
c9 -88 43 -159 162 -338 155 -233 187 -322 189 -535 1 -111 -1 -124 -24 -170
-29 -57 -96 -104 -190 -133 -75 -23 -289 -23 -380 1 -135 36 -225 97 -275 188
-28 50 -30 61 -30 159 1 124 14 167 103 328 97 176 122 268 122 456 l0 96 159
0 158 0 6 -52z m15367 -519 c0 -27 145 -308 249 -482 138 -233 191 -331 231
-427 84 -201 111 -414 72 -567 -50 -198 -156 -320 -325 -376 -90 -29 -254 -29
-361 2 -472 132 -600 586 -317 1126 32 61 119 207 194 325 76 118 161 259 190
312 48 91 67 115 67 87z m-5436 -1568 l29 -6 -1 -75 c-10 -396 -51 -891 -88
-1080 -35 -173 -118 -383 -185 -463 -26 -31 -26 -31 -70 -18 -155 46 -389 215
-389 282 0 30 -34 79 -55 79 -28 0 -98 214 -116 355 -57 445 237 852 669 925
56 9 166 10 206 1z m7776 -641 c18 -36 87 -150 154 -255 149 -232 235 -384
275 -490 98 -255 116 -510 50 -709 -43 -130 -155 -279 -259 -346 -297 -191
-777 -10 -964 362 -67 133 -88 224 -89 383 -2 157 18 238 93 384 54 105 133
208 332 430 155 173 245 292 290 380 l33 66 26 -70 c14 -38 41 -99 59 -135z
m-10961 -1226 c154 -41 305 -162 372 -299 33 -68 34 -73 33 -190 -1 -132 -25
-257 -69 -353 -71 -155 -239 -334 -378 -402 -143 -70 -248 -85 -376 -55 -126
30 -259 111 -321 196 -15 22 -43 75 -60 117 -17 42 -42 87 -55 99 -48 43 -58
243 -19 373 98 330 414 556 743 533 41 -3 100 -12 130 -19z m2401 -562 c147
-58 240 -178 270 -350 5 -32 14 -431 20 -907 5 -467 11 -895 12 -951 3 -100 3
-100 -17 -81 -60 56 -238 118 -400 137 -216 26 -462 -26 -625 -131 l-63 -40 6
973 c4 675 9 991 17 1033 15 77 42 128 83 159 41 32 359 167 406 172 19 3 37
7 41 10 13 14 197 -4 250 -24z m1295 -197 c118 -31 202 -79 284 -163 87 -87
136 -175 172 -308 32 -116 32 -325 1 -444 -45 -167 -136 -319 -248 -412 -52
-43 -157 -98 -187 -98 -35 0 -75 30 -157 117 -192 205 -322 473 -367 757 -18
114 -14 382 7 479 l13 57 51 15 c82 23 94 24 236 20 82 -2 159 -10 195 -20z"/>
<path d="M5249 14802 c-232 -115 -320 -172 -393 -253 -40 -44 -60 -89 -39 -89
3 0 61 22 128 50 167 67 388 141 523 175 75 18 112 32 112 41 0 26 -84 11
-278 -48 -71 -22 -106 -28 -113 -21 -7 7 30 26 118 62 70 29 138 56 151 61 23
10 29 25 13 34 -10 7 -133 -37 -236 -83 -71 -32 -85 -36 -85 -23 0 4 48 29
108 56 192 86 260 131 216 142 -5 1 -106 -45 -225 -104z"/>
<path d="M4485 14406 c-212 -54 -268 -69 -473 -133 -91 -28 -112 -38 -109 -51
4 -21 -14 -25 208 43 128 38 195 54 213 49 14 -3 26 -9 26 -13 0 -3 -36 -19
-81 -35 -89 -31 -232 -121 -237 -148 -5 -28 12 -22 91 32 67 46 215 110 252
110 8 0 15 -6 15 -14 0 -8 5 -16 10 -18 6 -2 -44 -45 -110 -97 -111 -87 -149
-131 -101 -118 10 2 136 98 280 212 207 165 259 211 250 222 -14 16 14 21
-234 -41z"/>
<path d="M5275 14347 c-79 -14 -102 -24 -87 -39 7 -7 40 -6 98 3 122 17 176 7
226 -39 27 -26 41 -48 45 -74 7 -48 -10 -75 -82 -128 -50 -37 -71 -70 -44 -70
6 0 39 20 74 45 98 70 116 139 60 226 -45 69 -157 99 -290 76z"/>
<path d="M5285 14243 c-66 -24 -244 -126 -418 -239 l-140 -92 -34 14 c-55 23
-195 54 -245 54 -44 0 -48 -2 -48 -25 0 -18 6 -26 23 -29 108 -20 236 -51 271
-65 59 -26 103 -79 112 -137 4 -26 4 -93 0 -150 -5 -71 -3 -105 5 -109 21 -14
29 12 42 129 l12 117 130 76 c72 41 145 82 163 89 35 16 39 25 17 44 -12 10
-24 6 -65 -19 -57 -35 -142 -72 -217 -94 l-52 -16 -19 32 -19 33 76 28 c67 26
256 111 468 212 100 48 141 108 98 144 -25 21 -105 22 -160 3z"/>
<path d="M15400 13365 c-16 -19 -7 -69 20 -113 24 -39 75 -72 112 -72 34 0 44
-16 25 -38 -24 -27 -75 -140 -92 -207 -20 -78 -20 -248 0 -305 8 -23 15 -46
15 -50 0 -5 -20 -20 -45 -34 -47 -28 -59 -57 -29 -74 12 -7 33 -1 73 20 74 38
205 62 301 55 106 -7 183 -39 251 -104 56 -53 84 -64 107 -41 18 18 16 23 -42
78 l-54 52 39 51 c117 154 128 405 25 555 l-35 50 97 7 c152 11 194 18 206 37
8 13 7 21 -4 32 -13 12 -32 13 -120 6 -157 -14 -637 -33 -687 -27 -52 6 -89
36 -99 81 -11 54 -39 72 -64 41z m617 -227 c49 -51 67 -85 82 -156 28 -133 -7
-285 -88 -383 l-27 -32 -65 21 c-89 30 -187 36 -284 19 -47 -9 -84 -11 -90 -6
-5 5 5 9 26 9 98 0 198 58 244 141 51 95 43 237 -17 315 -26 33 -92 63 -136
64 l-33 0 18 25 c18 24 20 24 173 25 l156 0 41 -42z"/>
<path d="M14738 13114 c-14 -13 -8 -52 8 -58 9 -3 32 -6 53 -6 70 0 241 -53
241 -75 0 -9 -38 -14 -132 -18 -187 -8 -235 -26 -208 -78 12 -22 30 -25 48 -7
7 7 69 13 173 16 154 4 161 4 157 -14 -3 -17 -17 -20 -108 -27 -58 -4 -125
-11 -149 -15 -51 -8 -74 -33 -51 -56 13 -13 35 -13 180 -1 91 8 233 18 315 23
146 7 150 8 153 30 6 41 -53 83 -238 169 -96 44 -200 88 -230 97 -63 19 -201
32 -212 20z"/>
<path d="M14920 12715 c-11 -14 -11 -24 3 -63 22 -62 21 -147 -2 -197 -25 -54
-64 -89 -134 -120 -48 -21 -58 -29 -55 -47 2 -11 10 -26 19 -31 25 -15 123 37
182 97 l49 49 111 -12 c62 -7 155 -21 207 -32 128 -28 329 -94 371 -122 46
-31 82 -101 74 -143 -7 -38 11 -163 27 -181 12 -15 44 -17 53 -3 3 6 1 44 -6
85 -10 58 -10 91 -2 141 14 81 46 131 119 187 43 33 54 47 52 67 -2 14 -10 26
-20 28 -23 4 -129 -79 -164 -129 -31 -45 -35 -46 -58 -20 -59 65 -494 190
-665 191 -75 0 -76 1 -76 98 0 125 -44 206 -85 157z"/>
<path d="M14820 12585 c-10 -12 -11 -24 -2 -50 9 -33 9 -35 -14 -41 -14 -4
-29 -14 -34 -24 -14 -27 13 -52 48 -44 69 17 88 45 71 107 -17 66 -42 85 -69
52z"/>
<path d="M15955 12242 c-15 -11 -61 -75 -68 -96 -5 -11 -1 -28 8 -42 27 -42
106 -24 89 20 -3 9 -10 16 -16 16 -5 0 0 14 12 30 12 17 20 40 18 52 -3 23
-25 34 -43 20z"/>
<path d="M10582 15269 c-49 -25 -123 -105 -153 -167 -16 -33 -20 -57 -17 -108
3 -65 2 -67 -32 -96 -41 -34 -123 -60 -175 -56 -46 4 -69 -22 -44 -48 38 -37
184 -9 262 50 26 20 37 24 43 15 12 -19 -71 -87 -114 -94 -75 -12 -99 -34 -70
-63 31 -31 138 2 205 62 45 41 48 42 75 28 l29 -14 -20 -31 c-11 -18 -47 -47
-81 -66 -49 -27 -60 -38 -58 -55 4 -30 38 -31 96 -2 51 26 105 80 117 115 5
17 12 19 38 14 18 -3 33 -7 34 -8 8 -5 -37 -52 -84 -86 -49 -37 -54 -44 -49
-70 3 -15 2 -31 -3 -33 -5 -3 -11 -23 -15 -45 -3 -22 -18 -53 -32 -70 -29 -35
-28 -65 2 -69 15 -2 32 10 56 37 l35 41 24 -26 c123 -132 391 -151 605 -43
l73 36 22 -24 c42 -43 131 -56 152 -21 16 24 -8 48 -48 48 -36 0 -85 41 -85
71 0 10 -9 23 -20 29 -18 10 -25 6 -53 -25 -89 -101 -335 -150 -478 -96 -74
28 -130 70 -168 124 l-30 44 43 31 c39 28 42 29 42 10 -1 -11 7 -25 16 -31 24
-16 105 55 141 124 21 40 39 60 70 76 23 12 57 37 75 56 29 30 32 38 23 56
-15 28 -47 27 -66 -2 -8 -13 -34 -34 -57 -47 -36 -21 -56 -25 -128 -25 -152 1
-258 54 -294 149 -14 36 -15 52 -6 85 13 48 101 148 148 168 38 16 50 37 32
58 -16 20 -27 19 -78 -6z m219 -546 c-5 -10 -21 -29 -36 -43 l-27 -25 28 43
c27 41 55 60 35 25z"/>
<path d="M11292 15200 c-72 -36 -125 -92 -159 -168 -22 -47 -25 -64 -20 -123
6 -66 5 -69 -23 -93 -26 -22 -126 -66 -149 -66 -13 0 -21 -27 -15 -45 4 -8 17
-15 30 -15 35 0 127 37 171 69 l39 28 34 -28 c29 -25 32 -30 19 -45 -7 -9 -38
-28 -69 -43 -57 -27 -71 -54 -39 -74 21 -13 132 37 164 75 27 32 25 31 59 18
23 -8 25 -12 15 -33 -6 -14 -29 -34 -50 -46 -40 -23 -54 -63 -26 -74 36 -14
147 69 147 109 0 15 29 18 68 8 23 -7 22 -8 -18 -49 -45 -46 -50 -78 -14 -83
28 -4 78 39 110 94 22 38 57 64 70 52 2 -3 -8 -20 -21 -39 -30 -40 -29 -73 2
-77 27 -4 66 46 98 123 12 31 32 63 44 71 25 18 28 59 5 68 -10 4 -42 -10 -82
-35 -37 -23 -80 -43 -97 -44 -16 -1 -38 -5 -48 -9 -23 -11 -78 -2 -176 29
-172 55 -227 168 -142 295 33 49 97 95 153 111 43 11 57 31 38 54 -19 22 -50
18 -118 -15z"/>
<path d="M8613 9835 c-27 -19 -34 -48 -18 -78 10 -19 10 -28 2 -36 -8 -8 -11
-47 -9 -109 4 -124 -17 -204 -95 -377 -130 -283 -148 -426 -76 -587 66 -148
258 -251 468 -251 164 0 301 69 384 193 75 114 90 225 47 354 -42 124 -109
223 -399 589 -64 81 -136 176 -158 210 -74 110 -98 126 -146 92z m294 -505
c202 -259 226 -292 262 -371 63 -134 49 -242 -43 -334 -71 -71 -112 -88 -223
-93 -107 -5 -199 17 -274 68 -84 55 -119 126 -119 240 0 91 19 156 105 360 75
180 105 273 105 331 0 41 -14 57 187 -201z"/>
<path d="M5499 8946 c-13 -6 -30 -33 -42 -64 -14 -38 -26 -54 -44 -58 -34 -9
-43 -33 -43 -121 0 -103 -37 -240 -97 -361 -25 -52 -103 -180 -172 -285 -169
-256 -222 -344 -291 -490 -68 -142 -120 -301 -146 -442 -27 -143 -25 -396 4
-521 50 -221 135 -383 280 -535 174 -182 386 -298 672 -366 142 -34 376 -43
501 -19 306 57 506 199 625 441 123 252 131 565 23 872 -84 237 -189 384 -531
743 -103 107 -216 231 -253 275 -195 234 -327 516 -381 810 -21 115 -50 149
-105 121z m49 -419 c37 -113 118 -285 186 -392 72 -115 185 -251 367 -441 376
-394 486 -549 562 -789 38 -121 50 -227 44 -383 -9 -232 -63 -368 -202 -508
-91 -92 -191 -148 -330 -186 -107 -28 -357 -31 -487 -5 -304 61 -561 210 -717
418 -276 366 -263 897 36 1419 36 63 124 204 195 313 71 109 152 239 178 290
53 99 104 243 115 320 4 26 10 47 14 47 3 0 21 -47 39 -103z"/>
<path d="M2700 8050 c-11 -11 -20 -31 -20 -44 0 -14 -5 -28 -11 -32 -8 -4 -10
-29 -6 -72 10 -130 -62 -288 -238 -519 -266 -351 -314 -428 -361 -592 -24 -83
-26 -105 -22 -204 8 -188 77 -347 208 -477 286 -286 774 -292 1071 -13 231
218 304 501 207 803 -68 214 -219 421 -463 637 -144 127 -205 194 -240 263
-20 40 -22 55 -18 136 5 84 4 93 -16 113 -26 26 -65 27 -91 1z m275 -610 c208
-190 303 -306 384 -469 191 -380 26 -786 -374 -918 -68 -22 -97 -26 -200 -26
-103 0 -132 4 -200 26 -116 38 -211 104 -284 196 -88 112 -131 233 -131 370 0
178 67 311 318 626 114 143 201 275 238 361 l28 62 37 -47 c20 -25 103 -107
184 -181z"/>
<path d="M15199 7981 c-16 -16 -41 -31 -56 -33 -35 -4 -48 -30 -67 -138 -31
-171 -98 -325 -276 -634 -181 -316 -243 -463 -276 -656 -19 -118 -15 -267 10
-365 24 -90 89 -213 146 -277 145 -163 417 -267 665 -255 256 12 437 121 544
326 107 205 135 528 66 764 -46 161 -93 238 -350 587 -132 179 -230 381 -280
578 -34 133 -68 160 -126 103z m44 -284 c65 -187 130 -302 299 -528 67 -90
146 -202 175 -247 100 -159 143 -313 143 -509 -1 -442 -220 -684 -600 -659
-110 7 -184 27 -295 80 -152 72 -243 172 -293 324 -21 65 -25 96 -25 202 -1
240 58 399 306 830 122 212 247 501 247 571 0 40 16 16 43 -64z"/>
<path d="M6332 4690 c-12 -5 -25 -16 -28 -25 -4 -8 -14 -15 -25 -15 -10 0 -29
-10 -43 -22 -20 -19 -28 -41 -40 -114 -29 -175 -97 -330 -286 -659 -229 -399
-287 -574 -278 -840 6 -143 31 -239 89 -342 70 -122 207 -234 359 -292 134
-52 201 -65 350 -65 126 0 141 2 228 32 51 18 117 48 148 67 205 131 314 401
301 745 -10 264 -71 410 -291 703 -229 305 -329 500 -387 752 -11 48 -39 86
-63 84 -6 0 -21 -4 -34 -9z m126 -525 c39 -75 106 -178 178 -275 211 -282 263
-370 311 -527 24 -79 27 -104 27 -248 0 -133 -3 -175 -21 -247 -73 -289 -241
-421 -533 -421 -131 0 -215 20 -337 78 -257 121 -365 363 -308 686 30 172 89
308 280 644 155 274 241 470 261 594 l7 44 37 -104 c20 -57 64 -158 98 -224z"/>
<path d="M16535 4234 c-11 -12 -15 -27 -12 -48 3 -17 -1 -38 -7 -46 -7 -8 -18
-53 -24 -98 -15 -109 -55 -191 -172 -352 -162 -223 -205 -322 -204 -470 1
-124 27 -185 118 -275 82 -82 162 -127 272 -155 124 -32 224 -23 334 28 73 34
163 125 197 199 24 52 27 70 27 168 0 99 -3 119 -33 200 -18 50 -109 248 -202
440 -94 193 -178 366 -187 385 -14 29 -23 36 -53 38 -24 2 -42 -3 -54 -14z
m384 -932 c37 -139 25 -215 -50 -296 -101 -110 -247 -133 -409 -64 -68 29
-146 93 -176 144 -77 131 -43 266 128 509 103 147 161 244 184 311 l17 50 143
-288 c90 -182 149 -316 163 -366z"/>
<path d="M10947 5160 c-48 -48 -49 -51 -44 -97 7 -68 48 -103 120 -103 89 0
126 37 127 127 0 52 -4 66 -26 92 -23 27 -32 31 -76 31 -48 0 -54 -3 -101 -50z"/>
<path d="M10982 3604 c-31 -21 -52 -66 -52 -110 0 -29 8 -44 39 -75 32 -33 45
-39 80 -39 79 0 131 49 131 123 0 33 -25 76 -60 104 -22 18 -111 16 -138 -3z"/>
</g>
</svg>
